<svg width="26" height="5" viewBox="0 0 26 31" fill="none" xmlns="http://www.w3.org/2000/svg">

<g id="Award Icon Done">
<g id="Award Icon">
<path id="Rectangle 6" d="M7.2276 11.0227L14.9774 14.6365L7.74982 30.1361L5.29348 25.4779L1.66039e-05 26.5223L7.2276 11.0227Z" fill="url(#paint0_linear_267_18)" fill-opacity="0.77"/>
<path id="Rectangle 7" d="M18.7724 11.0227L11.0226 14.6365L18.2502 30.1361L20.7065 25.4779L26 26.5223L18.7724 11.0227Z" fill="url(#paint1_linear_267_18)" fill-opacity="0.77"/>
<circle id="Ellipse 1" cx="12.8598" cy="11.0227" r="11.0227" fill="url(#paint2_linear_267_18)"/>
<circle id="Ellipse 2" cx="12.8597" cy="11.0227" r="9.18561" fill="url(#paint3_linear_267_18)"/>
</g>
<g id="Award Icon_2">
<path id="Rectangle 6_2" d="M7.2276 11.0227L14.9774 14.6365L7.74982 30.1361L5.29348 25.4779L1.66039e-05 26.5223L7.2276 11.0227Z" fill="url(#paint4_linear_267_18)" fill-opacity="0.77"/>
<path id="Rectangle 7_2" d="M18.7724 11.0227L11.0226 14.6365L18.2502 30.1361L20.7065 25.4779L26 26.5223L18.7724 11.0227Z" fill="url(#paint5_linear_267_18)" fill-opacity="0.77"/>
<circle id="Ellipse 1_2" cx="12.8598" cy="11.0227" r="11.0227" fill="url(#paint6_linear_267_18)"/>
<circle id="Ellipse 2_2" cx="12.8597" cy="11.0227" r="9.18561" fill="url(#paint7_linear_267_18)"/>
</g>
</g>
<defs>
<linearGradient id="paint0_linear_267_18" x1="11.1025" y1="12.8296" x2="7.34836" y2="22.964" gradientUnits="userSpaceOnUse">
<stop offset="0.640625" stop-color="#880101"/>
<stop offset="1" stop-color="#FF3434"/>
</linearGradient>
<linearGradient id="paint1_linear_267_18" x1="14.8975" y1="12.8296" x2="17.4525" y2="21.1269" gradientUnits="userSpaceOnUse">
<stop offset="0.557292" stop-color="#880101"/>
<stop offset="1" stop-color="#FF3434"/>
</linearGradient>
<linearGradient id="paint2_linear_267_18" x1="30.0552" y1="2.20455" x2="1.83704" y2="19.8409" gradientUnits="userSpaceOnUse">
<stop stop-color="#FBB3B3"/>
<stop offset="0.333333" stop-color="#FFDDA9"/>
<stop offset="0.666667" stop-color="#FBCFB3"/>
<stop offset="1" stop-color="#FBB3B3"/>
</linearGradient>
<linearGradient id="paint3_linear_267_18" x1="27.1893" y1="3.67422" x2="3.67413" y2="18.3712" gradientUnits="userSpaceOnUse">
<stop offset="1" stop-color="#FF5934" stop-opacity="0.11"/>
</linearGradient>
<linearGradient id="paint4_linear_267_18" x1="11.1025" y1="12.8296" x2="7.34836" y2="22.964" gradientUnits="userSpaceOnUse">
<stop offset="0.640625" stop-color="#880101"/>
<stop offset="1" stop-color="#FF3434"/>
</linearGradient>
<linearGradient id="paint5_linear_267_18" x1="14.8975" y1="12.8296" x2="17.4525" y2="21.1269" gradientUnits="userSpaceOnUse">
<stop offset="0.557292" stop-color="#880101"/>
<stop offset="1" stop-color="#FF3434"/>
</linearGradient>
<linearGradient id="paint6_linear_267_18" x1="30.0552" y1="2.20455" x2="1.83704" y2="19.8409" gradientUnits="userSpaceOnUse">
<stop stop-color="#FBB3B3"/>
<stop offset="0.0001" stop-color="#FFF7AB"/>
<stop offset="0.822917" stop-color="#FBCFB3"/>
<stop offset="1" stop-color="#FBB3B3"/>
</linearGradient>
<linearGradient id="paint7_linear_267_18" x1="27.1893" y1="3.67422" x2="3.67413" y2="18.3712" gradientUnits="userSpaceOnUse">
<stop offset="1" stop-color="#FF5934" stop-opacity="0.11"/>
</linearGradient>
</defs>
</svg>
